<svg xmlns="http://www.w3.org/2000/svg" viewBox="0 0 338.89 111.66"><defs><style>.cls-1{fill:#a78332;}.cls-2{fill:#282b2a;}</style></defs><g id="Layer_2" data-name="Layer 2"><g id="Calque_1" data-name="Calque 1"><path class="cls-1" d="M58.11,108.14c-.12.62-.54,2.52-.72,3.14H48.33v-.56c1.68-.12,1.84-.26,1.84-2v-8c0-1.7-.14-1.8-1.76-1.92v-.56h5.22v.56c-1.58.12-1.76.22-1.76,1.92v7.9c0,1.08.1,1.48.46,1.68a4.46,4.46,0,0,0,1.92.26c1.1,0,1.78-.1,2.24-.62a5.83,5.83,0,0,0,1-2Z"/><path class="cls-1" d="M75.89,98.84c-1.2.08-1.66.36-1.76,1.18a31.87,31.87,0,0,0-.1,3.24v1.66c0,2.36-.36,4.06-1.52,5.28a4.91,4.91,0,0,1-3.58,1.38,5.22,5.22,0,0,1-3.2-1c-1.2-.92-1.76-2.42-1.76-4.76v-5c0-1.8-.16-1.88-1.74-2v-.56h5.18v.56c-1.58.1-1.74.22-1.74,2v4.56c0,3.22,1.28,5.06,3.76,5.06,2.88,0,3.78-2.4,3.78-5.7v-1.52a25.55,25.55,0,0,0-.14-3.3c-.12-.78-.54-1-1.94-1.12v-.56h4.76Z"/><path class="cls-1" d="M88.13,111.28v-.56c1.24-.14,1.38-.32,1-1-.5-.82-1.4-2.32-2.66-4.28-1,1.48-1.78,2.86-2.42,4-.48.86-.38,1.06,1,1.22v.56H80.43v-.56a2.9,2.9,0,0,0,2.34-1.14c.48-.62,1.52-2.06,3.26-4.78-1-1.68-2-3.16-2.68-4.28-.84-1.3-1.12-1.52-2.54-1.68v-.56h4.9v.56c-1.2.14-1.24.32-.94.84.66,1.14,1.42,2.3,2.3,3.64.84-1.3,1.44-2.26,2-3.24s.4-1.08-.94-1.24v-.56h4.58v.56a3.06,3.06,0,0,0-2.76,1.54c-.42.58-1.08,1.52-2.44,3.58,1.1,1.72,2.2,3.46,3.16,4.92s1.38,1.7,2.76,1.84v.56Z"/><path class="cls-1" d="M111.69,98.84c-1.2.08-1.66.36-1.76,1.18a31.87,31.87,0,0,0-.1,3.24v1.66c0,2.36-.36,4.06-1.52,5.28a4.91,4.91,0,0,1-3.58,1.38,5.22,5.22,0,0,1-3.2-1c-1.2-.92-1.76-2.42-1.76-4.76v-5c0-1.8-.16-1.88-1.74-2v-.56h5.18v.56c-1.58.1-1.74.22-1.74,2v4.56c0,3.22,1.28,5.06,3.76,5.06,2.88,0,3.78-2.4,3.78-5.7v-1.52a25.55,25.55,0,0,0-.14-3.3c-.12-.78-.54-1-1.94-1.12v-.56h4.76Z"/><path class="cls-1" d="M128.63,111.44c-.24,0-.46,0-.7,0a3.64,3.64,0,0,1-3.24-1.82c-.7-1-1.42-2.22-2-3.2-.34-.56-.68-.8-1.72-.8h-.64v3.18c0,1.7.18,1.82,1.78,1.94v.56h-5.26v-.56c1.64-.12,1.82-.24,1.82-1.94v-8c0-1.7-.16-1.76-1.72-1.9v-.56h5a5.65,5.65,0,0,1,3.2.68,3,3,0,0,1,1.32,2.62,3.65,3.65,0,0,1-2.54,3.42c.34.66,1.18,2,1.78,2.9a17.38,17.38,0,0,0,1.62,2.08,2.84,2.84,0,0,0,1.44.94Zm-7.36-6.5a3.31,3.31,0,0,0,2.18-.56,2.87,2.87,0,0,0,1.1-2.48,2.71,2.71,0,0,0-2.94-3,2,2,0,0,0-1.08.2c-.14.1-.22.34-.22.88v4.92Z"/><path class="cls-1" d="M144,98.84c-1.38.16-1.6.36-2.38,1.58-.9,1.46-1.58,2.62-2.54,4.38a2.28,2.28,0,0,0-.32,1.26v2.72c0,1.68.16,1.82,2,1.94v.56h-5.66v-.56c1.78-.12,2-.24,2-1.94v-2.66a2,2,0,0,0-.42-1.18c-.7-1.24-1.42-2.54-2.52-4.4-.8-1.36-1-1.58-2.22-1.7v-.56h4.78v.56c-1.42.18-1.38.42-1,1.08.84,1.6,1.82,3.24,2.68,4.74.74-1.32,1.82-3.28,2.38-4.5.46-1,.4-1.16-1.16-1.32v-.56H144Z"/><path class="cls-1" d="M169.39,111.44c-.24,0-.46,0-.7,0a3.64,3.64,0,0,1-3.24-1.82c-.7-1-1.42-2.22-2-3.2-.34-.56-.68-.8-1.72-.8h-.64v3.18c0,1.7.18,1.82,1.78,1.94v.56h-5.26v-.56c1.64-.12,1.82-.24,1.82-1.94v-8c0-1.7-.16-1.76-1.72-1.9v-.56h5a5.65,5.65,0,0,1,3.2.68,3,3,0,0,1,1.32,2.62,3.65,3.65,0,0,1-2.54,3.42c.34.66,1.18,2,1.78,2.9A17.38,17.38,0,0,0,168,110a2.84,2.84,0,0,0,1.44.94Zm-7.36-6.5a3.31,3.31,0,0,0,2.18-.56,2.87,2.87,0,0,0,1.1-2.48,2.71,2.71,0,0,0-2.94-3,2,2,0,0,0-1.08.2c-.14.1-.22.34-.22.88v4.92Z"/><path class="cls-1" d="M174,111.28v-.56c1.64-.12,1.8-.24,1.8-1.94v-8c0-1.7-.16-1.82-1.8-1.94v-.56h5.3v.56c-1.64.12-1.8.24-1.8,1.94v8c0,1.72.16,1.82,1.8,1.94v.56Z"/><path class="cls-1" d="M191.91,111.28v-.56c1.26-.16,1.44-.32,1.18-1.1s-.66-1.86-1.1-3.08h-4.26c-.32.9-.62,1.74-.88,2.58-.44,1.26-.26,1.46,1.24,1.6v.56h-4.34v-.56c1.26-.18,1.54-.3,2.24-2.06l4.14-10.5.62-.18c1.24,3.44,2.58,7.24,3.86,10.72.64,1.72.9,1.9,2.2,2v.56Zm-2-10.7h0c-.64,1.72-1.28,3.46-1.88,5.1h3.68Z"/><path class="cls-1" d="M207.63,98.28c2.54,0,4.42.52,5.66,1.7a5.89,5.89,0,0,1,1.68,4.3,6.35,6.35,0,0,1-2.46,5.34,9.43,9.43,0,0,1-5.94,1.66h-4.74v-.54c1.72-.12,1.88-.24,1.88-1.94v-8c0-1.72-.16-1.8-1.7-1.92v-.58Zm-2.2,10.38c0,1.52.66,1.9,2.12,1.9,3.74,0,5.46-2.8,5.46-6a5.26,5.26,0,0,0-2.36-4.78,6.22,6.22,0,0,0-3.4-.82,3.28,3.28,0,0,0-1.56.24c-.2.14-.26.36-.26,1.14Z"/><path class="cls-1" d="M242.75,103.3a2.55,2.55,0,0,0-2.32,1.48c-.56.78-1,1.6-1.74,2.66a23.08,23.08,0,0,1,3.26,4l-.14.2a5,5,0,0,1-2.44-.82c-.24-.3-1.08-1.24-1.74-1.94-1.44,1.94-2.76,2.66-4.18,2.66a3.76,3.76,0,0,1-4-3.64c0-1.84,1.32-2.64,3-3.86a3.79,3.79,0,0,1-1.44-2.78,3.23,3.23,0,0,1,3.28-3.16,2.83,2.83,0,0,1,3,2.76,2.29,2.29,0,0,1-.84,1.76,18,18,0,0,1-1.62,1.2c.66.56,2.08,1.8,3.36,3.1a13.81,13.81,0,0,0,1.2-2.3c.38-.92.2-1.16-1.22-1.34v-.56h4.58Zm-5.58,5.06A37.67,37.67,0,0,0,233,104.5a3.5,3.5,0,0,0-1.82,2.86,2.71,2.71,0,0,0,2.76,2.82A4.19,4.19,0,0,0,237.17,108.36Zm-4.68-7.56c0,1,.62,1.74,1.82,2.66a3,3,0,0,0,1.48-2.56,1.89,1.89,0,0,0-1.66-2.1C233.19,98.8,232.49,99.6,232.49,100.8Z"/><path class="cls-1" d="M262.77,101.32c-.36-1.28-.88-2.66-2.62-2.66a2.1,2.1,0,0,0-2.22,2.2c0,1.46,1,2.14,2.54,3s3.46,1.74,3.46,4-1.78,3.78-4.44,3.78a7,7,0,0,1-2-.3,6.85,6.85,0,0,1-1-.42,24.62,24.62,0,0,1-.54-3.1l.58-.14c.32,1.22,1.22,3.24,3.28,3.24a2.23,2.23,0,0,0,2.4-2.4c0-1.48-1.1-2.18-2.6-3-1.28-.68-3.3-1.68-3.3-3.94,0-1.92,1.54-3.56,4.12-3.56a8.3,8.3,0,0,1,2.52.46c.08.72.18,1.5.34,2.76Z"/><path class="cls-1" d="M274.27,98.28a5.55,5.55,0,0,1,3.36.84,3.33,3.33,0,0,1,1.3,2.82A4.11,4.11,0,0,1,275,106a6.73,6.73,0,0,1-.9,0l-1.48-.38v3.14c0,1.7.18,1.8,2,1.92v.56h-5.42v-.56c1.6-.12,1.76-.28,1.76-1.94v-8c0-1.76-.16-1.84-1.64-1.94v-.56ZM272.65,105a4.33,4.33,0,0,0,1.46.24c1.3,0,2.9-.7,2.9-3.24a2.81,2.81,0,0,0-3-3.08,1.87,1.87,0,0,0-1.12.24c-.16.14-.22.38-.22.94Z"/><path class="cls-1" d="M290.53,111.28v-.56c1.26-.16,1.44-.32,1.18-1.1s-.66-1.86-1.1-3.08h-4.26c-.32.9-.62,1.74-.88,2.58-.44,1.26-.26,1.46,1.24,1.6v.56h-4.34v-.56c1.26-.18,1.54-.3,2.24-2.06l4.14-10.5.62-.18c1.24,3.44,2.58,7.24,3.86,10.72.64,1.72.9,1.9,2.2,2v.56Zm-2-10.7h0c-.64,1.72-1.28,3.46-1.88,5.1h3.68Z"/></g><g id="Calque_2" data-name="Calque 2"><path class="cls-2" d="M110.8,79a23.35,23.35,0,0,1-1.63-2.31,39.53,39.53,0,0,1-2.26-4.3c-.73-1.62-1.43-3.27-2.09-5L77.93,1.78h-.77L65.2,32c.14.78.26,1.55.36,2.32l8-20.54L90.27,55.92H63.32c-.11.33-.23.66-.35,1H90.71l3.53,8.93c.58,1.54,1.19,3.2,1.81,5a41.53,41.53,0,0,1,1.44,4.85A12.3,12.3,0,0,1,97.84,79Z"/><path class="cls-2" d="M157.91,76.25a67.18,67.18,0,0,1-7.45-5.51q-3.86-3.26-7.6-7.06t-6.73-7.44a59.87,59.87,0,0,1-4.85-6.72,10.45,10.45,0,0,1-1.87-4.85,4.18,4.18,0,0,1,1.65-3.2,25.72,25.72,0,0,1,4.19-2.87q2.53-1.43,5.4-3.14a35.6,35.6,0,0,0,5.41-4,19.87,19.87,0,0,0,4.18-5.24,14.19,14.19,0,0,0,1.66-7,14.84,14.84,0,0,0-6.18-12.13,24.81,24.81,0,0,0-8.15-3.86,43.55,43.55,0,0,0-11.91-1.43H97.42L97,2.25A5.55,5.55,0,0,1,98,4.7,45.64,45.64,0,0,1,98.92,12c.18,2.9.28,6,.28,9.31v8.93l.11-.44V49.31l7.15,17.43c.64,1.66,1.34,3.29,2.06,4.88.1.23.21.45.31.68-.13-1.1-.24-2.27-.32-3.54-.18-2.91-.29-6-.33-9.32s-.05-6.28-.05-8.93V2.77h17.53q8.26,0,12.51,4.85t4.25,13.12a17.81,17.81,0,0,1-2.59,10,35.92,35.92,0,0,1-5.74,6.78l-5.79,5.29a7.34,7.34,0,0,0-2.64,5.51,17.82,17.82,0,0,0,1.71,6.84,50.09,50.09,0,0,0,4.52,8.16,76,76,0,0,0,6.5,8.32A60.49,60.49,0,0,0,146.16,79H164a17.61,17.61,0,0,1-6.12-2.7"/><path class="cls-2" d="M61.93,26.14A37.23,37.23,0,0,0,55.21,13.8,33.33,33.33,0,0,0,44,5.09,35,35,0,0,0,28.36,1.78H.49L0,2.27A5.57,5.57,0,0,1,1,4.7,48.07,48.07,0,0,1,2,12c.18,2.9.27,6,.27,9.31V59.44c0,3.31-.09,6.41-.27,9.32A47.92,47.92,0,0,1,1,76a5.89,5.89,0,0,1-1,2.36L.63,79h28a34.25,34.25,0,0,0,15.6-3.36,33.85,33.85,0,0,0,11.14-8.82A37.31,37.31,0,0,0,62,54.42a46,46,0,0,0,2.2-14.11,45.45,45.45,0,0,0-2.26-14.17m-10,32.31a34.64,34.64,0,0,1-8.77,13.94A20.37,20.37,0,0,1,28.47,78H17.56a10.8,10.8,0,0,1-3.7-.66A4,4,0,0,1,12,75.76a5.37,5.37,0,0,1-.72-2.48c-.07-1-.11-2.08-.11-3.26V2.77h17.2A20.41,20.41,0,0,1,43,8.34a35,35,0,0,1,8.82,14,53.46,53.46,0,0,1,3,18.08A54.53,54.53,0,0,1,51.9,58.45"/><path class="cls-2" d="M255.47,79.29H203.83c.88,0,1.55-1,2-2.93a48.2,48.2,0,0,0,.94-7.3c.18-2.91.28-6,.28-9.34V21.45c0-3.31-.1-6.43-.28-9.34a48.37,48.37,0,0,0-.94-7.3c-.44-1.95-1.11-2.93-2-2.93h15.48c-.88,0-1.55,1-2,2.88a45.13,45.13,0,0,0-.94,7.13q-.27,4.26-.33,9.18T216,30V70.34A8.89,8.89,0,0,0,217.65,76q1.66,2.1,6.64,2.32h6.3a83.7,83.7,0,0,0,14.27-1A41.29,41.29,0,0,0,255.47,74Z"/><path class="cls-2" d="M289.2,6.86q-.94,2.1-2.38,4.7T284,16.7L271.56,38.6,258.62,17c-.88-1.47-1.82-3.1-2.82-4.87s-1.88-3.4-2.65-4.92a22.1,22.1,0,0,1-1.61-3.81c-.29-1-.11-1.55.56-1.55H237.5q1.77,1.11,4.87,5.58t6.52,10.23l14.6,24.56v9q0,4-.06,8.91c0,3.28-.16,6.34-.38,9.18a51.32,51.32,0,0,1-1,7.13c-.44,1.92-1.07,2.87-1.88,2.87h15.37c-.81,0-1.44-1-1.88-2.93a48.2,48.2,0,0,1-.94-7.3q-.27-4.36-.33-9.34c0-3.32-.05-6.3-.05-9V42.25L272.23,40l13.16-23.22q1.55-2.65,3.15-5.36t3-4.81c.91-1.33,1.72-2.43,2.43-3.29l-2.16,1.11L290.77,5c-.26.13-.55.19-.8.34a.63.63,0,0,0-.29.27c-.06.12-.09.26-.14.39C289.42,6.29,289.33,6.57,289.2,6.86Z"/><path class="cls-2" d="M335.57,48.55a39.52,39.52,0,0,0-8.35-7.74,102.63,102.63,0,0,0-10.89-6.64q-5.86-3.09-10.9-6.25a46,46,0,0,1-8.35-6.52,10.45,10.45,0,0,1-3.31-7.47q0-6.3,3.42-9.29a12.52,12.52,0,0,1,8.52-3,24.9,24.9,0,0,1,11.06,2.93,36.62,36.62,0,0,1,10.84,8.46l4.09-7.41a36.1,36.1,0,0,0-10-4.26A42.69,42.69,0,0,0,311,0a38.74,38.74,0,0,0-9.35,1.11,25.21,25.21,0,0,0-7.85,3.31A17.75,17.75,0,0,0,288.4,10a14.28,14.28,0,0,0-2,7.63,14.6,14.6,0,0,0,3.31,9.57,39.67,39.67,0,0,0,8.24,7.41,101.06,101.06,0,0,0,10.68,6.36,109.14,109.14,0,0,1,10.67,6.3,37.79,37.79,0,0,1,8.24,7.41,15,15,0,0,1,3.31,9.73,13.71,13.71,0,0,1-5.14,11.12,16.42,16.42,0,0,1-5.58,2.93,22.77,22.77,0,0,1-6.75,1,30,30,0,0,1-13.82-3.64,31.28,31.28,0,0,1-12.06-11.62l-5.2,8.52a49,49,0,0,0,13.44,6,55.12,55.12,0,0,0,15,2.1,43.91,43.91,0,0,0,10.72-1.27,26.09,26.09,0,0,0,9-4,20.53,20.53,0,0,0,6.19-7,21.07,21.07,0,0,0,2.33-10.23A15.11,15.11,0,0,0,335.57,48.55Z"/><path class="cls-2" d="M292.32,5.53S302.33.67,305.18,1l2.6-.85s-13.27.85-18,5.41Z"/></g></g></svg>